<svg width="17" height="19" viewBox="0 0 17 19" fill="none" xmlns="http://www.w3.org/2000/svg">
<path d="M8.25683 0C5.62367 0 3.47119 2.15248 3.47119 4.78564C3.47119 7.4188 5.62367 9.57128 8.25683 9.57128C10.89 9.57128 13.0425 7.4188 13.0425 4.78564C13.0425 2.15248 10.89 0 8.25683 0Z" fill="#42C4DC"/>
<path d="M16.47 13.3956C16.3446 13.0821 16.1774 12.7895 15.9893 12.5178C15.028 11.0968 13.5443 10.1564 11.8724 9.92647C11.6635 9.90559 11.4336 9.94735 11.2664 10.0728C10.3887 10.7206 9.3438 11.055 8.25708 11.055C7.17036 11.055 6.12548 10.7206 5.24776 10.0728C5.08056 9.94735 4.85068 9.88467 4.64172 9.92647C2.96988 10.1564 1.46524 11.0968 0.524839 12.5178C0.336759 12.7895 0.169559 13.103 0.0441987 13.3956C-0.0184813 13.521 0.00239865 13.6672 0.0650787 13.7926C0.232279 14.0852 0.441239 14.3778 0.629319 14.6286C0.921879 15.0256 1.23536 15.3809 1.59064 15.7152C1.8832 16.0078 2.21756 16.2795 2.55196 16.5512C4.20288 17.7842 6.1882 18.432 8.2362 18.432C10.2842 18.432 12.2695 17.7841 13.9204 16.5512C14.2548 16.3004 14.5892 16.0078 14.8818 15.7152C15.2161 15.3809 15.5505 15.0256 15.8431 14.6286C16.052 14.3569 16.2402 14.0852 16.4073 13.7926C16.5118 13.6672 16.5326 13.5209 16.47 13.3956Z" fill="#42C4DC"/>
</svg>
